<svg id="Layer_1" data-name="Layer 1" xmlns="http://www.w3.org/2000/svg" viewBox="0 0 680.56 680.56"><defs><style>.cls-1{fill:#fff;}</style></defs><path class="cls-1" d="M462.4,255.08l-36.92-36.92a151.83,151.83,0,0,0-48-32.48l-47.57,47.57a93.41,93.41,0,0,1,53.88,26.62l36.92,36.93a94,94,0,0,1,0,132.83L256.2,594.12a94,94,0,0,1-132.84,0L86.44,557.19a94,94,0,0,1,0-132.83l54.22-54.22a191.3,191.3,0,0,1-4.58-78.86L44.72,382.64c-59.63,59.63-59.63,156.65,0,216.27l36.93,36.93c59.62,59.62,156.64,59.62,216.27,0L462.4,471.35C522,411.73,522,314.71,462.4,255.08Z"/><path class="cls-1" d="M303.11,494.88l47.57-47.57a93.37,93.37,0,0,1-53.88-26.63l-36.93-36.92a94,94,0,0,1,0-132.84L424.36,86.44a94,94,0,0,1,132.83,0l36.93,36.92a94,94,0,0,1,0,132.84l-59.27,59.27a191.12,191.12,0,0,1,4.57,78.86l96.42-96.41c59.62-59.63,59.62-156.65,0-216.27L598.91,44.72c-59.62-59.63-156.64-59.63-216.27,0L218.16,209.2c-59.63,59.63-59.63,156.65,0,216.28l36.92,36.92A152.16,152.16,0,0,0,303.11,494.88Z"/></svg>