<svg id="Layer_1" data-name="Layer 1" xmlns="http://www.w3.org/2000/svg" xmlns:xlink="http://www.w3.org/1999/xlink" viewBox="0 0 93.2 94.72"><defs><style>.cls-1{fill:#020202;}.cls-2,.cls-6,.cls-7{fill:none;stroke-miterlimit:10;}.cls-2{stroke:#00ff0c;}.cls-3{fill:url(#linear-gradient);}.cls-4{fill:url(#linear-gradient-2);}.cls-5{fill:#f7f7f7;}.cls-6{stroke:#f7f7f7;stroke-width:0.4px;}.cls-7{stroke:#fff;stroke-width:0.1px;}.cls-8{fill:#fff;}.cls-9{fill:#f2f7f2;}.cls-10{fill:url(#linear-gradient-3);}.cls-11{fill:url(#linear-gradient-4);}</style><linearGradient id="linear-gradient" x1="48.19" y1="65.95" x2="55.26" y2="65.95" gradientUnits="userSpaceOnUse"><stop offset="0"/><stop offset="1"/></linearGradient><linearGradient id="linear-gradient-2" x1="51.8" y1="62.71" x2="51.47" y2="69.73" gradientUnits="userSpaceOnUse"><stop offset="0"/><stop offset="0.13" stop-color="#020000"/><stop offset="0.18" stop-color="#090000"/><stop offset="0.22" stop-color="#140000"/><stop offset="0.24" stop-color="#250000"/><stop offset="0.27" stop-color="#3b0000"/><stop offset="0.29" stop-color="#570000"/><stop offset="0.31" stop-color="#700"/><stop offset="0.32" stop-color="#9d0000"/><stop offset="0.34" stop-color="#c80000"/><stop offset="0.35" stop-color="#f60000"/><stop offset="0.36" stop-color="red"/><stop offset="0.45" stop-color="#ca0000"/><stop offset="0.67" stop-color="#460000"/><stop offset="0.78"/><stop offset="1" stop-color="red"/></linearGradient><linearGradient id="linear-gradient-3" x1="58.39" y1="65.95" x2="65.46" y2="65.95" xlink:href="#linear-gradient"/><linearGradient id="linear-gradient-4" x1="62.01" y1="62.71" x2="61.67" y2="69.73" xlink:href="#linear-gradient-2"/></defs><path class="cls-1" d="M65.49,43.55a5.12,5.12,0,0,0,.56,0c1.21-.21,1.37-.08.94,1.14s-1,2.41-1.53,3.66c.15,0,.33-.12.52-.17s.57-.14.86-.2c0,.3.2.65.11.9-.57,1.51-1.2,3-1.82,4.52-.08,0,.09,0,.25,0,.74,0,.84.44.57,1l-1.29,2.79a1.86,1.86,0,0,0-.18,1.06l.9-1,.83.61a7.44,7.44,0,0,1,2.28-4.47l.48,1.2,2-4.12L72,52.13c.3-1.88.68-3.57,2.44-4.65l.52,2a11.26,11.26,0,0,1,3-4.91l.59,2a8.46,8.46,0,0,1,3.19-4.13l.39,2.23a10.51,10.51,0,0,1,3.65-4.22l.31,1.66,4-3.12.28.93,3.67-2,.09.91c2.24-1.28,4.46-2.58,6.72-3.82a7.77,7.77,0,0,1,1.7-.49v.19l-5.33,7.48s0,.12,0,.18l1,.17-2.38,3.47.69.31.28.37L93,49.89l1.8.58a10.09,10.09,0,0,1-4.51,3.22l2,.64a8.19,8.19,0,0,1-4.2,2.79l1.76.75a11.38,11.38,0,0,1-5.1,2.51l1.91.74c-1.27,1.61-3,1.88-4.86,1.94l1.27,1.07c-1.2,1.09-2.67,1.25-4.16,1.71l1.28.64c-1.3,1.46-3,1.61-4.62,1.86l.55,1.08c-.72.25-1.34.48-2,.67-1.38.43-1.38.42-1.6,1l2.65-.92-.15,1.18c1-.72,1.92-1.41,3.26-1.09l-.57,1,3.68-1L81,71.38,84.22,71l-.67,1.17,3.6-.32L86.54,73c.91.09,1.79.14,2.66.29.22,0,.41.36.8.74,1.54.11,2.12.41,2,1.06l6,1.5L98,77l-5.82,1.2c-.68,1.14-1.78.87-2.59,1.2-.13.27-.31.55-.51.57-.89.1-1.78.11-2.65.16l.54,1.16-3.5-.45L84,82.08l-3-.61-.36-.1.16.26.39,1-3.5-1,.36.9c-1.31.29-2.16-.53-3.21-1.14L75,82.56l-2.59-1.1-.2-.08.11.17c.18.56,0,.85-.57.61-.81-.32-1.61-.71-2.26-1l-.95.69,2.07.88-.79.44L72,84.24l-.66.42,1.84,1.26-.89.36c.41.25.74.43,1,.65a11.59,11.59,0,0,1,.91.8l-.63.25c.25.29.47.56.69.83a7.33,7.33,0,0,1,.64.83c.09.16,1,2.63,1,2.76l1.73,2.82h-.2c-1.41-.52-2.46-1.72-4.1-2a4.14,4.14,0,0,1-3-1.47s-.1,0-.15,0l-.27.73-1.61-1.82-.2.94-1.42-1.75-.37.68-1.28-2.09-.41.88-1-2.08-.51.37c-.28-.57-.52-1.08-.76-1.58-.61.38-.91,0-1.31-1.51-1.25.31-.6-1.58-1.75-1.55-.17,0-.36-1.19-.55-1.85a2,2,0,0,1-.36.07c-.47-1.31-.93-2.63-1.43-4.08a41,41,0,0,0-.32,9c.23,2.51.42,5,.63,7.6H56.3c-.23-5.1-.45-10.14-.68-15.18a11,11,0,0,1-.3,1.54,3.19,3.19,0,0,1-.74,1.17c-.47.6-.27,1.52-1.17,2.16s-1.22,1.77-1.82,2.69c0,.07-.14.11-.24.2L51,85.94l-.89,1.72-.42-.39-1.11,2-.34-.87-1.34,2.18-.28-.81-1.39,1.72-.32-.79-1.55,1.7-.29-.69a7.43,7.43,0,0,1-1.71,1.13,15.84,15.84,0,0,0-3,.86c-.9.49-1.88.85-2.82,1.27a36.58,36.58,0,0,0,2.17-3.14c.38-.67.37-1.55.71-2.24A10,10,0,0,1,39.82,88l-.74-.28L41,86.25l-.81-.33,1.84-1.25-.68-.43,2.18-1.07-.79-.47,2.1-.85-1-.69c-.71.31-1.5.7-2.32,1-.54.21-.72,0-.5-.57a1.87,1.87,0,0,1,.07-.22l-.2.1c-.54.25-1.08.51-1.64.74s-1,.32-1-.45l-3,1.06.32-1.33.13,0,0-.12-.08.13-3.43,1.16.37-1.23-3.21.6.57-1.26.09-.17-.14.12-3.48.54.58-1.19c-.88,0-1.77-.06-2.65-.15-.21,0-.39-.3-.52-.58-.82-.29-1.87-.11-2.68-1.22L15.39,77l0-.43,6-1.48c-.11-.65.39-.9,2.22-1.32.19-.17.36-.46.58-.49.84-.14,1.7-.19,2.63-.29l-.54-1.11,3.54.31L29.09,71l3.23.36L32,70.29l3.45.9-.36-.93c1.29-.31,2.21.39,3.2,1.09l-.15-1.16,2.6.9c-.8-1.25-2.42-.91-3.48-1.81l.49-1c-1.66-.23-3.29-.43-4.63-1.83l1.28-.65c-1.46-.5-3-.6-4.14-1.74l1.25-1c-1.9-.08-3.57-.32-4.84-2l1.91-.72a12,12,0,0,1-5.12-2.5l1.7-.75C22.57,56,21.81,55.45,21,54.28l1.71-.52-4.24-3,.12-.36L20.05,50l-3.49-3.69.92-.33-2.4-3.48.93-.15-5.47-7.77.29-.29a43.66,43.66,0,0,1,8.29,4.63l.09-1.06,3.7,2,.18-1L27.17,42l.3-1.58a9.81,9.81,0,0,1,3.66,4.18l.41-2.21a8.34,8.34,0,0,1,3.19,4.11l.59-2a11.32,11.32,0,0,1,3,4.93l.47-1.86c1.33.43,2.07,1.75,2.48,4.44l1.09-1.53,2,4.08.43-1.19c1.55,1.15,1.9,2.81,2.31,4.45l.86-.63.87,1,.21-.13c-.34-.77-.68-1.54-1-2.31-.15-.32-.31-.63-.45-1-.57-1.27-.53-1.35.75-1.55-.58-1.16-1.17-2.35-1.74-3.54a1.93,1.93,0,0,1-.19-.74A10.36,10.36,0,0,1,46.45,48l1,.29.49.16c-.78-1.67-1.81-3.11-1.83-5l1.67.17.12.08s0,0,.06,0l-.11-.09a8.88,8.88,0,0,1-2-4,14.9,14.9,0,0,1,0-1.66l1.93,1,.22.06-.09-.19c-.9-1.92-1.83-3.82-1.69-6.24l2.16,1.11a9.64,9.64,0,0,1-1-6.07l2.12,1.31a12.33,12.33,0,0,1-.64-6.47l1.62,1,.44-6,1.19.6a9.18,9.18,0,0,1,1.21-4.76l.75.66a47.34,47.34,0,0,1,2.62-11c1.51,3.49,2,7.2,2.65,11l.74-.64a8.71,8.71,0,0,1,1.21,4.75l1.19-.6c.16,2.08.31,4,.46,6l1.68-1a11.77,11.77,0,0,1-.85,6.56l2.19-1.28A9,9,0,0,1,65,33.47l2.11-1c.15,2.38-.81,4.28-1.68,6.2l-.09.19.22-.06,1.73-.87a2.49,2.49,0,0,1,0,2.4c-.5,1.11-1.18,2.14-1.79,3.21l-.11.07,0,.06A.87.87,0,0,0,65.49,43.55Z" transform="translate(-9.89 -1.42)"/><path class="cls-2" d="M65.49,43.48a3.46,3.46,0,0,0,.56,0c1.21-.22,1.37-.09.94,1.13S66,47,65.46,48.26a4.47,4.47,0,0,1,.52-.18l.86-.2c0,.31.2.66.11.91-.57,1.5-1.2,3-1.82,4.51-.08,0,.09,0,.25,0,.74,0,.84.45.57,1l-1.29,2.79a1.89,1.89,0,0,0-.18,1.06l.9-1,.83.6a7.44,7.44,0,0,1,2.28-4.47l.48,1.2,2-4.11L72,52.06c.3-1.88.68-3.57,2.44-4.65l.52,2a11.29,11.29,0,0,1,3-4.92l.59,2a8.39,8.39,0,0,1,3.19-4.12l.39,2.22a10.58,10.58,0,0,1,3.65-4.22L86.13,42l4-3.12.28.93,3.67-2,.09.91c2.24-1.28,4.46-2.59,6.72-3.82a7.78,7.78,0,0,1,1.7-.5v.2l-5.33,7.47a.54.54,0,0,0,0,.19l1,.17-2.38,3.46.69.31.28.38L93,49.83l1.8.58a10.07,10.07,0,0,1-4.51,3.21l2,.64a8.13,8.13,0,0,1-4.2,2.79l1.76.75c-1.46,1.45-3.23,2-5.1,2.52l1.91.73c-1.27,1.61-3,1.88-4.86,1.94l1.27,1.07c-1.2,1.09-2.67,1.26-4.16,1.72l1.28.64c-1.3,1.46-3,1.61-4.62,1.85l.55,1.09c-.72.25-1.34.48-2,.67-1.38.42-1.38.41-1.6,1l2.65-.92-.15,1.18c1-.72,1.92-1.4,3.26-1.09l-.57,1,3.68-1L81,71.31l3.26-.38-.67,1.18,3.6-.33-.61,1.12c.91.09,1.79.14,2.66.28.22,0,.41.37.8.75,1.54.11,2.12.4,2,1l6,1.51,0,.41-5.82,1.2c-.68,1.15-1.78.87-2.59,1.2-.13.27-.31.56-.51.58-.89.09-1.78.11-2.65.15l.54,1.16-3.5-.44L84,82l-3-.61-.36-.1.16.26.39,1-3.5-1,.36.89c-1.31.29-2.16-.52-3.21-1.14L75,82.5l-2.59-1.1-.2-.09.11.18c.18.55,0,.84-.57.6-.81-.32-1.61-.7-2.26-1l-.95.69,2.07.89-.79.43L72,84.17l-.66.42,1.84,1.26-.89.36c.41.25.74.43,1,.65s.56.49.91.8l-.63.25c.25.29.47.56.69.83a7.33,7.33,0,0,1,.64.83c.09.17,1,2.64,1,2.76l1.73,2.83h-.2c-1.41-.53-2.46-1.73-4.1-2a4.14,4.14,0,0,1-3-1.47s-.1,0-.15,0l-.27.73L68.41,90.6l-.2.94-1.42-1.75-.37.69-1.28-2.09-.41.88-1-2.09-.51.38L62.46,86c-.61.39-.91,0-1.31-1.51-1.25.32-.6-1.58-1.75-1.55-.17,0-.36-1.19-.55-1.85a2,2,0,0,1-.36.07c-.47-1.31-.93-2.62-1.43-4.07a40.89,40.89,0,0,0-.32,9c.23,2.52.42,5,.63,7.61H56.3L55.62,78.5a11,11,0,0,1-.3,1.54,3.11,3.11,0,0,1-.74,1.17c-.47.6-.27,1.53-1.17,2.16s-1.22,1.77-1.82,2.69c0,.07-.14.12-.24.2L51,85.88l-.89,1.71-.42-.39-1.11,2.06-.34-.88-1.34,2.18-.28-.81-1.39,1.72-.32-.79-1.55,1.71-.29-.69a7.43,7.43,0,0,1-1.71,1.13,14.46,14.46,0,0,0-3,.86c-.9.49-1.88.84-2.82,1.26a36.58,36.58,0,0,0,2.17-3.14c.38-.66.37-1.54.71-2.23a9.25,9.25,0,0,1,1.35-1.64l-.74-.29L41,86.19l-.81-.33,1.84-1.26-.68-.42,2.18-1.07-.79-.48,2.1-.84-1-.69c-.71.31-1.5.69-2.32,1-.54.2-.72,0-.5-.57a2,2,0,0,1,.07-.23l-.2.1c-.54.25-1.08.51-1.64.74s-1,.32-1-.44l-3,1.06.32-1.33h.13l0-.12-.08.13-3.43,1.16.37-1.23-3.21.6.57-1.25.09-.18-.14.12-3.48.54L26.94,80c-.88-.05-1.77-.07-2.65-.16-.21,0-.39-.3-.52-.57-.82-.29-1.87-.12-2.68-1.23l-5.7-1.18,0-.42,6-1.49c-.11-.65.39-.9,2.22-1.31.19-.17.36-.46.58-.5.84-.13,1.7-.19,2.63-.28l-.54-1.12,3.54.32-.67-1.16,3.23.37L32,70.23l3.45.9-.36-.94c1.29-.31,2.21.39,3.2,1.09l-.15-1.16,2.6.9c-.8-1.24-2.42-.91-3.48-1.81l.49-1c-1.66-.23-3.29-.44-4.63-1.84l1.28-.65c-1.46-.5-3-.59-4.14-1.74l1.25-1c-1.9-.08-3.57-.31-4.84-2l1.91-.71a12.09,12.09,0,0,1-5.12-2.5l1.7-.76c-2.56-1.15-3.32-1.66-4.11-2.83l1.71-.53-4.24-2.95.12-.36,1.44-.49L16.56,46.2l.92-.33-2.4-3.47.93-.16-5.47-7.77.29-.29a43.66,43.66,0,0,1,8.29,4.63l.09-1.05,3.7,2.05.18-1L27.17,42l.3-1.59a9.84,9.84,0,0,1,3.66,4.19l.41-2.21a8.27,8.27,0,0,1,3.19,4.1l.59-2a11.41,11.41,0,0,1,3,4.94l.47-1.87c1.33.43,2.07,1.75,2.48,4.45l1.09-1.54,2,4.09.43-1.2c1.55,1.15,1.9,2.81,2.31,4.45l.86-.63.87,1L49,58.1c-.34-.77-.68-1.54-1-2.31-.15-.32-.31-.63-.45-.95-.57-1.28-.53-1.35.75-1.55-.58-1.17-1.17-2.35-1.74-3.55a1.88,1.88,0,0,1-.19-.74,10,10,0,0,1,.08-1.1l1,.28.49.16c-.78-1.66-1.81-3.11-1.83-5l1.67.17.12.09s0,0,.06-.06l-.11-.08a9,9,0,0,1-2-4,15.11,15.11,0,0,1,0-1.67l1.93,1,.22.06-.09-.2c-.9-1.91-1.83-3.82-1.69-6.24l2.16,1.11a9.63,9.63,0,0,1-1-6.07l2.12,1.31a12.33,12.33,0,0,1-.64-6.47l1.62,1,.44-6,1.19.6A9.15,9.15,0,0,1,53.26,13l.75.65a47.34,47.34,0,0,1,2.62-11c1.51,3.49,2,7.2,2.65,11l.74-.63a8.65,8.65,0,0,1,1.21,4.74l1.19-.6c.16,2.09.31,4,.46,6l1.68-1a11.79,11.79,0,0,1-.85,6.56l2.19-1.29A9,9,0,0,1,65,33.4l2.11-1c.15,2.38-.81,4.28-1.68,6.2l-.09.19.22,0,1.73-.87a2.47,2.47,0,0,1,0,2.39c-.5,1.12-1.18,2.14-1.79,3.21l-.11.08,0,.06Z" transform="translate(-9.89 -1.42)"/><path class="cls-3" d="M55.25,64.14l-.54.08-.7.08c.3,1.21-1,2.68-2.93,2.33s-1.53-2.42-1.53-2.42L48.21,64a2.68,2.68,0,0,0,0,.4,3.54,3.54,0,1,0,7.07,0A1.69,1.69,0,0,0,55.25,64.14Z" transform="translate(-9.89 -1.42)"/><path class="cls-4" d="M55.25,64.14l-.54.08-.7.08c.3,1.21-1,2.68-2.93,2.33s-1.53-2.42-1.53-2.42L48.21,64a2.68,2.68,0,0,0,0,.4,3.54,3.54,0,1,0,7.07,0A1.69,1.69,0,0,0,55.25,64.14Z" transform="translate(-9.89 -1.42)"/><ellipse class="cls-5" cx="40.42" cy="63.59" rx="0.43" ry="0.36"/><path class="cls-6" d="M49.58,64.21s-.39,2.07,1.5,2.42S54.31,65.51,54,64.3" transform="translate(-9.89 -1.42)"/><ellipse class="cls-7" cx="41.83" cy="62.95" rx="3.54" ry="3.57"/><path class="cls-8" d="M54.64,63.7a2.25,2.25,0,0,1,.68-.11,1.93,1.93,0,0,1,.34,0l.18,0a.23.23,0,0,1,.2.16c0,.27-.21.27-.29.33a2.19,2.19,0,0,1-.33.12,4.07,4.07,0,0,1-.67.16,16.65,16.65,0,0,1-2.73.13,16.47,16.47,0,0,1-2.71-.19A7.58,7.58,0,0,1,48,64a.25.25,0,0,1-.14-.21.29.29,0,0,1,.12-.2.77.77,0,0,1,.34-.14.83.83,0,0,1,.67.09.88.88,0,0,0-.64,0c-.21.06-.42.25-.26.28a9.85,9.85,0,0,0,1.3.2,21.76,21.76,0,0,0,2.68.09,20,20,0,0,0,2.68,0,4.72,4.72,0,0,0,.64-.1l.32-.09a.82.82,0,0,0,.18-.08s-.11-.06-.21-.07l-.33-.06A3,3,0,0,0,54.64,63.7Z" transform="translate(-9.89 -1.42)"/><path class="cls-9" d="M49.28,62.14s-.44.29-.44.6.06.35.06.35,0-.35.14-.45S49.28,62.14,49.28,62.14Z" transform="translate(-9.89 -1.42)"/><path class="cls-9" d="M54.44,62.39v.15s-.17.06-.15-.18,0-.31,0-.31Z" transform="translate(-9.89 -1.42)"/><path class="cls-9" d="M52.83,57.2" transform="translate(-9.89 -1.42)"/><path class="cls-5" d="M51.6,69.36a19.24,19.24,0,0,0,2.61,1.9,8.17,8.17,0,0,0,2.86,1.07A5.36,5.36,0,0,0,60,72a8.35,8.35,0,0,0,1.41-.69c.46-.27.87-.61,1.36-.9a10.84,10.84,0,0,1-1.06,1.29,6.34,6.34,0,0,1-1.39,1,5.77,5.77,0,0,1-1.64.61,6.24,6.24,0,0,1-1.78,0,6.81,6.81,0,0,1-3.14-1.41A7.91,7.91,0,0,1,51.6,69.36Z" transform="translate(-9.89 -1.42)"/><path class="cls-10" d="M65.46,64.14l-.55.08-.7.08c.3,1.21-1,2.68-2.93,2.33s-1.53-2.42-1.53-2.42L58.41,64c0,.13,0,.27,0,.4a3.54,3.54,0,1,0,7.07,0Z" transform="translate(-9.89 -1.42)"/><path class="cls-11" d="M65.46,64.14l-.55.08-.7.08c.3,1.21-1,2.68-2.93,2.33s-1.53-2.42-1.53-2.42L58.41,64c0,.13,0,.27,0,.4a3.54,3.54,0,1,0,7.07,0Z" transform="translate(-9.89 -1.42)"/><ellipse class="cls-5" cx="50.85" cy="63.59" rx="0.57" ry="0.48"/><path class="cls-6" d="M59.78,64.21s-.39,2.07,1.5,2.42,3.23-1.12,2.93-2.33" transform="translate(-9.89 -1.42)"/><ellipse class="cls-7" cx="52.03" cy="62.95" rx="3.54" ry="3.57"/><path class="cls-8" d="M64.84,63.7a2.25,2.25,0,0,1,.68-.11,1.93,1.93,0,0,1,.34,0l.18,0a.22.22,0,0,1,.2.16c0,.27-.21.27-.29.33a1.61,1.61,0,0,1-.33.12,3.84,3.84,0,0,1-.67.16,16.53,16.53,0,0,1-2.72.13,16.51,16.51,0,0,1-2.72-.19A7.58,7.58,0,0,1,58.16,64a.25.25,0,0,1-.14-.21.29.29,0,0,1,.12-.2.77.77,0,0,1,.34-.14.82.82,0,0,1,.67.09.88.88,0,0,0-.64,0c-.21.06-.42.25-.26.28a10.4,10.4,0,0,0,1.3.2,21.82,21.82,0,0,0,2.68.09,20,20,0,0,0,2.68,0,4.87,4.87,0,0,0,.65-.1c.1,0,.21-.05.31-.09a.82.82,0,0,0,.18-.08s-.11-.06-.21-.07a1.75,1.75,0,0,0-.33-.06A3,3,0,0,0,64.84,63.7Z" transform="translate(-9.89 -1.42)"/><path class="cls-9" d="M59.48,62.14s-.44.29-.43.6.05.35.05.35,0-.35.14-.45S59.48,62.14,59.48,62.14Z" transform="translate(-9.89 -1.42)"/><path class="cls-9" d="M64.65,62.39v.15s-.18.06-.15-.18,0-.31,0-.31Z" transform="translate(-9.89 -1.42)"/><path class="cls-9" d="M52.83,57.2" transform="translate(-9.89 -1.42)"/></svg>